<?xml version="1.0" encoding="UTF-8"?>
<svg xmlns="http://www.w3.org/2000/svg" xmlns:xlink="http://www.w3.org/1999/xlink" width="21px" height="21px" viewBox="0 0 21 21" version="1.1">
<g id="surface1">
<path style=" stroke:none;fill-rule:evenodd;fill:rgb(0%,0%,0%);fill-opacity:1;" d="M 14.410156 1.910156 C 13.167969 1.910156 12.367188 2.058594 11.449219 2.507812 C 11.105469 2.671875 10.789062 2.875 10.492188 3.109375 C 10.207031 2.886719 9.898438 2.695312 9.574219 2.535156 C 8.636719 2.070312 7.792969 1.910156 6.59375 1.910156 C 3.382812 1.910156 1.050781 4.570312 1.050781 8.027344 C 1.050781 10.636719 2.503906 13.15625 5.214844 15.59375 C 6.636719 16.875 8.453125 18.140625 9.753906 18.8125 L 10.5 19.199219 L 11.246094 18.8125 C 12.546875 18.140625 14.363281 16.875 15.785156 15.59375 C 18.496094 13.15625 19.949219 10.636719 19.949219 8.027344 C 19.949219 4.605469 17.59375 1.921875 14.410156 1.910156 Z M 18.230469 8.027344 C 18.230469 10.070312 17.015625 12.175781 14.636719 14.316406 C 13.335938 15.484375 11.667969 16.652344 10.5 17.265625 C 9.332031 16.652344 7.664062 15.484375 6.363281 14.316406 C 3.984375 12.175781 2.769531 10.070312 2.769531 8.027344 C 2.769531 5.472656 4.386719 3.628906 6.59375 3.628906 C 7.546875 3.628906 8.136719 3.742188 8.8125 4.074219 C 9.210938 4.273438 9.5625 4.53125 9.871094 4.859375 L 10.503906 5.535156 L 11.128906 4.855469 C 11.441406 4.515625 11.800781 4.246094 12.203125 4.050781 C 12.859375 3.730469 13.410156 3.628906 14.40625 3.628906 C 16.589844 3.636719 18.230469 5.507812 18.230469 8.027344 Z M 18.230469 8.027344 "/>
</g>
</svg>
