<?xml version="1.0" encoding="UTF-8"?>
<svg xmlns="http://www.w3.org/2000/svg" xmlns:xlink="http://www.w3.org/1999/xlink" width="21px" height="21px" viewBox="0 0 21 21" version="1.1">
<g id="surface1">
<path style=" stroke:none;fill-rule:nonzero;fill:rgb(100%,31.372549%,31.372549%);fill-opacity:1;" d="M 18.703125 5.578125 L 18.703125 3.9375 L 17.0625 3.9375 L 17.0625 2.296875 L 12.140625 2.296875 L 12.140625 3.9375 L 8.859375 3.9375 L 8.859375 2.296875 L 3.9375 2.296875 L 3.9375 3.9375 L 2.296875 3.9375 L 2.296875 5.578125 L 0.65625 5.578125 L 0.65625 10.5 L 2.296875 10.5 L 2.296875 12.140625 L 3.9375 12.140625 L 3.9375 13.78125 L 5.578125 13.78125 L 5.578125 15.421875 L 7.21875 15.421875 L 7.21875 17.0625 L 8.859375 17.0625 L 8.859375 18.703125 L 10.5 18.703125 L 20.34375 8.859375 L 20.34375 5.578125 Z M 18.703125 5.578125 "/>
<path style=" stroke:none;fill-rule:nonzero;fill:rgb(100%,100%,100%);fill-opacity:1;" d="M 3.9375 5.578125 L 5.578125 5.578125 L 5.578125 7.21875 L 3.9375 7.21875 Z M 3.9375 5.578125 "/>
<path style=" stroke:none;fill-rule:nonzero;fill:rgb(60.784314%,0.784314%,43.921569%);fill-opacity:1;" d="M 10.5 17.0625 L 12.140625 17.0625 L 12.140625 18.703125 L 10.5 18.703125 Z M 10.5 17.0625 "/>
<path style=" stroke:none;fill-rule:nonzero;fill:rgb(60.784314%,0.784314%,43.921569%);fill-opacity:1;" d="M 12.140625 15.421875 L 13.78125 15.421875 L 13.78125 17.0625 L 12.140625 17.0625 Z M 12.140625 15.421875 "/>
<path style=" stroke:none;fill-rule:nonzero;fill:rgb(60.784314%,0.784314%,43.921569%);fill-opacity:1;" d="M 13.78125 13.78125 L 15.421875 13.78125 L 15.421875 15.421875 L 13.78125 15.421875 Z M 13.78125 13.78125 "/>
<path style=" stroke:none;fill-rule:nonzero;fill:rgb(60.784314%,0.784314%,43.921569%);fill-opacity:1;" d="M 15.421875 12.140625 L 17.0625 12.140625 L 17.0625 13.78125 L 15.421875 13.78125 Z M 15.421875 12.140625 "/>
<path style=" stroke:none;fill-rule:nonzero;fill:rgb(60.784314%,0.784314%,43.921569%);fill-opacity:1;" d="M 17.0625 10.5 L 18.703125 10.5 L 18.703125 12.140625 L 17.0625 12.140625 Z M 17.0625 10.5 "/>
<path style=" stroke:none;fill-rule:nonzero;fill:rgb(60.784314%,0.784314%,43.921569%);fill-opacity:1;" d="M 18.703125 8.859375 L 20.34375 8.859375 L 20.34375 10.5 L 18.703125 10.5 Z M 18.703125 8.859375 "/>
</g>
</svg>
